#!OML:ASF I:\Actors\actors\Patient Classification 2\Patient 1\Session 1\actor1.ASF
:FULLY-SPECIFIED
:DEGREES
353
root 0.985108 18.1368 4.85779 -9.01597 3.14629 -4.59666
lowerback 14.8407 -0.81905 4.48746
upperback 4.26084 -0.172937 4.95101
thorax -3.79931 -0.101821 2.71174
lowerneck -8.73569 -3.42372 -3.02199
upperneck 18.4008 -4.0215 -1.00217
head 7.11312 -2.21834 -0.17174
rclavicle -5.06901e-015 -1.90833e-014
rhumerus -14.1199 2.72814 -62.8715
rradius 62.6371
rwrist -1.72174
rhand -14.326 -46.5745
rfingers 7.12502
rthumb 11.8147 -76.2212
lclavicle -5.06901e-015 -1.90833e-014
lhumerus 33.4763 -32.5257 65.0103
lradius 65.8914
lwrist 8.30946
lhand -12.4334 -19.5285
lfingers 7.12502
lthumb 13.6393 10.0046
rfemur 11.9383 0.115617 13.3904
rtibia 9.04616
rfoot -19.0584 -10.4349
rtoes -7.05703
lfemur -7.79612 5.80257 -17.2182
ltibia 39.5483
lfoot -25.7423 3.38691
ltoes -53.4541
354
root 1.00387 18.1314 4.84895 -9.07072 3.29046 -4.57561
lowerback 14.899 -0.767958 4.59035
upperback 4.25666 -0.0767958 5.10733
thorax -3.83628 -0.0547322 2.80392
lowerneck -8.78266 -3.55667 -3.28591
upperneck 18.4353 -4.13576 -1.12173
head 7.13849 -2.30125 -0.178606
rclavicle 6.75868e-015 1.59028e-015
rhumerus -14.3898 1.79649 -62.2092
rradius 61.0022
rwrist -1.77037
rhand -13.7196 -48.047
rfingers 7.12502
rthumb 12.3995 -77.6593
lclavicle 6.75868e-015 1.59028e-015
lhumerus 33.5708 -32.7925 65.3779
lradius 65.9739
lwrist 8.52278
lhand -12.5219 -19.4234
lfingers 7.12502
lthumb 13.554 10.1155
rfemur 12.0087 -0.0230121 13.2671
rtibia 9.03703
rfoot -19.0432 -10.3823
rtoes -6.59271
lfemur -7.81345 5.74741 -17.3357
ltibia 39.6035
lfoot -25.8222 3.37843
ltoes -53.5211
355
root 1.0184 18.1269 4.841 -9.13792 3.41595 -4.58559
lowerback 15.0056 -0.79094 4.78862
upperback 4.2319 -0.0638538 5.15448
thorax -3.9199 -0.0496611 2.74247
lowerneck -8.79304 -3.62853 -3.40747
upperneck 18.4137 -4.20339 -1.17825
head 7.13625 -2.34651 -0.182948
rclavicle -8.54774e-015 1.59028e-015
rhumerus -14.5867 0.968464 -61.8415
rradius 59.1076
rwrist -0.775614
rhand -13.374 -49.0178
rfingers 7.12502
rthumb 12.7327 -78.6096
lclavicle -8.54774e-015 1.59028e-015
lhumerus 33.603 -32.991 65.4695
lradius 66.124
lwrist 8.68002
lhand -12.4359 -19.1888
lfingers 7.12502
lthumb 13.6369 10.3445
rfemur 12.1251 -0.150271 13.1976
rtibia 8.95358
rfoot -19.0033 -10.3667
rtoes -6.29026
lfemur -7.80968 5.76635 -17.376
ltibia 39.6496
lfoot -25.8584 3.26967
ltoes -53.4896
356
root 1.02929 18.1231 4.83593 -9.21716 3.54199 -4.5869
lowerback 14.6832 -0.827872 4.78429
upperback 4.49247 -0.153216 5.2797
thorax -3.46808 -0.088188 2.88408
lowerneck -9.0063 -3.66914 -3.54226
upperneck 18.2365 -4.20583 -1.3005
head 7.11779 -2.36575 -0.202815
rclavicle 8.34896e-015 6.36111e-014
rhumerus -14.2441 0.175973 -61.4795
rradius 57.0474
rwrist 0.663732
rhand -13.1479 -49.4631
rfingers 7.12502
rthumb 12.9506 -79.0412
lclavicle 8.34896e-015 6.36111e-014
lhumerus 33.9292 -32.8292 65.4318
lradius 66.2313
lwrist 8.80356
lhand -12.316 -19.082
lfingers 7.12502
lthumb 13.7524 10.4435
rfemur 12.3179 -0.276582 13.1327
rtibia 8.76815
rfoot -18.9148 -10.4034
rtoes -6.46318
lfemur -7.77725 5.78373 -17.4048
ltibia 39.6889
lfoot -25.843 3.14636
ltoes -53.3479
357
root 1.03756 18.1208 4.83223 -9.33544 3.64975 -4.59152
lowerback 14.7537 -0.851947 4.99499
upperback 4.52595 -0.150217 5.2775
thorax -3.47051 -0.0863379 2.76351
lowerneck -9.1015 -3.74195 -3.58865
upperneck 18.2572 -4.27267 -1.41028
head 7.1412 -2.41056 -0.238952
rclavicle 1.68967e-014 2.06736e-014
rhumerus -14.3326 -0.691054 -61.2418
rradius 55.0823
rwrist 2.08791
rhand -13.0845 -49.4437
rfingers 7.12502
rthumb 13.0118 -79.0179
lclavicle 1.68967e-014 2.06736e-014
lhumerus 33.9875 -33.0018 65.439
lradius 66.3662
lwrist 8.90282
lhand -12.2722 -19.0538
lfingers 7.12502
lthumb 13.7947 10.4688
rfemur 12.6027 -0.381555 13.0832
rtibia 8.48593
rfoot -18.7956 -10.4764
rtoes -6.53228
lfemur -7.69231 5.80372 -17.4164
ltibia 39.7244
lfoot -25.7825 3.09955
ltoes -53.2431
358
root 1.04384 18.1194 4.82856 -9.45592 3.74172 -4.59659
lowerback 14.809 -0.857432 5.15831
upperback 4.58837 -0.131614 5.30308
thorax -3.43414 -0.0761787 2.69578
lowerneck -9.16143 -3.80106 -3.64188
upperneck 18.2012 -4.33003 -1.47609
head 7.13441 -2.44668 -0.257224
rclavicle 7.7526e-015 4.92986e-014
rhumerus -14.3734 -1.62366 -60.9924
rradius 53.1336
rwrist 3.53255
rhand -13.3281 -48.9481
rfingers 7.12502
rthumb 12.777 -78.5371
lclavicle 7.7526e-015 4.92986e-014
lhumerus 34.1223 -33.1664 65.4251
lradius 66.5034
lwrist 8.97018
lhand -12.2717 -19.0872
lfingers 7.12502
lthumb 13.7951 10.4354
rfemur 12.9206 -0.471133 13.0419
rtibia 8.13349
rfoot -18.612 -10.5918
rtoes -6.55366
lfemur -7.59689 5.81892 -17.4254
ltibia 39.7508
lfoot -25.6888 3.05283
ltoes -53.141
359
root 1.04805 18.1193 4.8265 -9.51437 3.85912 -4.60987
lowerback 14.8697 -0.856231 5.34918
upperback 4.5845 -0.0948612 5.32003
thorax -3.47091 -0.0581741 2.60123
lowerneck -9.21397 -3.86782 -3.72998
upperneck 18.1958 -4.40349 -1.47963
head 7.14526 -2.4879 -0.251757
rclavicle -4.57205e-015 9.06458e-014
rhumerus -14.4993 -2.68786 -60.7496
rradius 51.2378
rwrist 5.05553
rhand -13.7987 -48.5071
rfingers 7.12502
rthumb 12.3232 -78.1239
lclavicle -4.57205e-015 9.06458e-014
lhumerus 34.2515 -33.3986 65.4082
lradius 66.5904
lwrist 9.09022
lhand -12.3318 -19.1862
lfingers 7.12502
lthumb 13.7373 10.3403
rfemur 13.1903 -0.595395 13.0104
rtibia 7.74771
rfoot -18.4177 -10.7714
rtoes -6.58905
lfemur -7.56119 5.77149 -17.4418
ltibia 39.7645
lfoot -25.5664 3.02176
ltoes -53.0075
360
root 1.04869 18.1199 4.82717 -9.54546 3.98433 -4.629
lowerback 14.8711 -0.844049 5.54285
upperback 4.57611 -0.0489552 5.32152
thorax -3.48029 -0.0353341 2.48601
lowerneck -9.32719 -3.96406 -3.81599
upperneck 18.2584 -4.5138 -1.48424
head 7.18939 -2.54743 -0.252714
rclavicle -1.03368e-014 -5.88403e-014
rhumerus -14.6133 -3.82833 -60.5212
rradius 49.4005
rwrist 6.58021
rhand -14.3257 -48.6052
rfingers 7.12502
rthumb 11.815 -78.2519
lclavicle -1.03368e-014 -5.88403e-014
lhumerus 34.3958 -33.6534 65.3431
lradius 66.6751
lwrist 9.32671
lhand -12.4933 -19.1366
lfingers 7.12502
lthumb 13.5816 10.4005
rfemur 13.4493 -0.733463 12.9935
rtibia 7.33573
rfoot -18.2692 -10.9922
rtoes -6.56575
lfemur -7.53978 5.65836 -17.453
ltibia 39.7611
lfoot -25.4777 3.03673
ltoes -52.8843
361
root 1.04709 18.1212 4.82921 -9.5859 4.10565 -4.59969
lowerback 14.7355 -0.792731 5.54429
upperback 4.66077 0.00413876 5.41086
thorax -3.3176 -0.00619511 2.56737
lowerneck -9.45985 -4.07377 -4.0254
upperneck 18.2326 -4.61732 -1.50872
head 7.21154 -2.61279 -0.238848
rclavicle -7.55382e-015 1.43125e-014
rhumerus -14.5762 -4.95576 -60.1413
rradius 47.6246
rwrist 7.99683
rhand -14.8484 -48.8117
rfingers 7.12502
rthumb 11.3109 -78.4867
lclavicle -7.55382e-015 1.43125e-014
lhumerus 34.638 -33.795 65.3439
lradius 66.7864
lwrist 9.64169
lhand -12.6381 -19.0428
lfingers 7.12502
lthumb 13.442 10.5035
rfemur 13.713 -0.858418 12.9299
rtibia 6.95472
rfoot -18.1449 -11.1719
rtoes -6.7263
lfemur -7.48959 5.4966 -17.5142
ltibia 39.7339
lfoot -25.4312 3.03286
ltoes -52.6794
362
root 1.04475 18.1236 4.83188 -9.61917 4.21119 -4.55509
lowerback 14.7389 -0.769081 5.64136
upperback 4.65203 0.0506629 5.40623
thorax -3.32844 0.0169991 2.49997
lowerneck -9.48762 -4.13835 -4.13775
upperneck 18.2055 -4.68049 -1.53366
head 7.21136 -2.65233 -0.234802
rclavicle -8.15017e-015 -1.59028e-015
rhumerus -14.7017 -6.16611 -59.8727
rradius 45.9605
rwrist 9.30593
rhand -15.3543 -48.7122
rfingers 7.12502
rthumb 10.823 -78.4133
lclavicle -8.15017e-015 -1.59028e-015
lhumerus 34.7162 -33.9682 65.3288
lradius 66.9374
lwrist 9.96461
lhand -12.577 -18.9821
lfingers 7.12502
lthumb 13.5009 10.5602
rfemur 13.9084 -0.967855 12.8562
rtibia 6.69198
rfoot -18.0338 -11.284
rtoes -6.87452
lfemur -7.43333 5.32695 -17.5971
ltibia 39.6828
lfoot -25.3848 3.07478
ltoes -52.5583
